<?xml version="1.0" encoding="UTF-8"?>
<svg version="1.1" xmlns="http://www.w3.org/2000/svg" width="512" height="512">
<path d="M0 0 C2.81972931 2.36493426 2.97850831 3.8280665 3.4375 7.5 C2.91751076 11.65991393 2.21217036 12.43591953 -1 15 C-3.83959961 15.95385742 -3.83959961 15.95385742 -7.15234375 16.60546875 C-8.39048828 16.86231445 -9.62863281 17.11916016 -10.90429688 17.38378906 C-11.56163818 17.51434692 -12.21897949 17.64490479 -12.89624023 17.77941895 C-24.79580434 20.15833551 -36.42495968 23.11136498 -48 26.75 C-49.20261475 27.12664795 -50.40522949 27.5032959 -51.64428711 27.89135742 C-57.24148119 29.68113229 -62.62245129 31.63851091 -68 34 C-60.00484372 53.82834018 -51.94450942 73.6281083 -43.75 93.375 C-43.38278839 94.26017303 -43.01557678 95.14534607 -42.63723755 96.05734253 C-41.58701582 98.58801256 -40.5359566 101.11833227 -39.484375 103.6484375 C-39.17557907 104.39177841 -38.86678314 105.13511932 -38.54862976 105.90098572 C-38.2564003 106.60316727 -37.96417084 107.30534882 -37.66308594 108.02880859 C-37.24826965 109.0285672 -37.24826965 109.0285672 -36.82507324 110.04852295 C-36.27015218 111.36103155 -35.70058004 112.66743197 -35.11730957 113.96759033 C-33.83323267 116.83822768 -33 118.81441355 -33 122 C-32.05640625 121.66226563 -31.1128125 121.32453125 -30.140625 120.9765625 C-9.6783501 113.7965347 9.65232522 113.24616265 29.77880859 122.47900391 C39.32330338 127.12003518 47.91027374 133.16357331 56.5546875 139.27685547 C62.92687682 143.7671622 69.3764317 148.14771449 75.82666016 152.52490234 C77.22388109 153.47322956 78.61952555 154.4238859 80.01318359 155.37744141 C98.88160749 168.23853834 115.82070611 170.24535336 138.02938938 166.18822861 C144.50293398 164.94664652 150.95855863 163.61969202 157.41150594 162.27578259 C161.33743283 161.46226727 165.26763978 160.66994771 169.19737244 159.87506104 C175.79008715 158.53858603 182.37999763 157.18901118 188.96801758 155.82958984 C198.20033353 153.92452534 207.43716376 152.04215944 216.67517483 150.16493368 C233.66305442 146.71144978 250.64942813 143.25037286 267.6181221 139.70365906 C270.65602821 139.07156937 273.69611943 138.45153149 276.73703003 137.83410645 C278.33714277 137.49990663 279.93710521 137.16498574 281.53686523 136.82910156 C282.82060532 136.56502502 284.1043454 136.30094849 285.42698669 136.02886963 C291.14321724 134.38284833 296.70150716 132.17993129 300.4375 127.375 C301.14712891 126.48941406 301.14712891 126.48941406 301.87109375 125.5859375 C305.01445667 121.17000205 304.51251958 116.22625596 304 111 C302.2916675 105.6504788 298.8695593 102.63767795 294 100 C281.36283739 95.99298892 264.29468757 99.68222092 251.328125 100.5390625 C250.10460075 100.6198341 248.88107651 100.7006057 247.62047577 100.78382492 C241.1581721 101.21243423 234.69638553 101.64815766 228.23486328 102.08837891 C222.90528598 102.44995796 217.57511831 102.79694444 212.24365234 103.12939453 C205.77544998 103.53363431 199.30949176 103.9640785 192.84426117 104.41328049 C190.39056825 104.57942587 187.93624066 104.73646839 185.48136139 104.88405228 C182.04815923 105.09240455 178.61886148 105.33444762 175.18847656 105.58447266 C174.18462418 105.63770691 173.18077179 105.69094116 172.14649963 105.74578857 C165.91225258 106.24459748 161.98663309 107.74580697 157.00265121 111.55415916 C150.43154217 116.29825925 142.82945166 116.61183968 135 116 C131.44432265 115.2560281 128.10033549 114.10975348 124.6875 112.875 C123.21470581 112.36223511 123.21470581 112.36223511 121.7121582 111.83911133 C118.82267777 110.82360631 115.94086905 109.78889281 113.06152344 108.74505615 C110.78650674 107.9228413 108.5086815 107.10872622 106.23046875 106.29541016 C101.91114254 104.75180259 97.59653515 103.19560019 93.2850647 101.63018799 C91.5567706 101.00296893 89.82774688 100.37775665 88.09799194 99.75457764 C85.64925863 98.86989336 83.20502384 97.97376952 80.76171875 97.07421875 C80.02211914 96.8088179 79.28251953 96.54341705 78.52050781 96.26997375 C71.87638217 93.79765108 71.87638217 93.79765108 70 91 C69.25 84.25 69.25 84.25 71.5 80.5 C75.02002984 78.3879821 78.03957336 78.48468884 82 79 C86.28806119 80.20125889 90.4111355 81.78014438 94.56640625 83.375 C95.75926743 83.8189209 96.9521286 84.2628418 98.18113708 84.72021484 C101.97966692 86.13452883 105.77171325 87.56511559 109.5625 89 C113.35687013 90.43478526 117.15306757 91.86398051 120.95457458 93.27978516 C123.31594128 94.15926843 125.67346679 95.04915327 128.02650452 95.95068359 C134.44922875 98.34347914 139.52333599 100.14169955 146.328125 98.40625 C150.04851428 96.65192009 152.39917985 95.13832253 154.125 91.3125 C155.48843583 86.55818155 154.81637056 82.54092641 153 78 C149.31601455 71.98282376 143.57432829 68.87106182 137.72314453 65.12158203 C135.44067149 63.63593721 133.20372875 62.0860926 130.96801758 60.53125 C127.3265107 57.99970568 123.66236029 55.50123604 120 53 C119.46129272 52.63142883 118.92258545 52.26285767 118.36755371 51.88311768 C114.57524652 49.28987007 110.77427631 46.70989537 106.965271 44.14123535 C105.67963351 43.27200562 104.39620875 42.39949184 103.11529541 41.52331543 C88.74216717 31.70010766 75.12467765 24.46692135 57.9375 21.1875 C56.59528134 20.91417251 55.25348146 20.63878044 53.91210938 20.36132812 C48.5668917 19.26683542 43.22546282 18.1919688 37.84033203 17.31103516 C36.82731773 17.13499504 36.82731773 17.13499504 35.7938385 16.95539856 C33.93467199 16.63374251 32.07202207 16.33240883 30.20922852 16.0324707 C26.30578582 14.77665791 24.5270037 13.19928485 22 10 C22 6.47866855 22.30558577 4.15735706 24.125 1.125 C29.66947918 -2.20168751 35.96174947 -0.7582332 41.90625 0.4765625 C42.74861206 0.64368744 43.59097412 0.81081238 44.4588623 0.98300171 C46.23835399 1.33901923 48.01670986 1.70075626 49.79394531 2.06787109 C52.46129154 2.61703061 55.13231891 3.14386837 57.8046875 3.66796875 C71.11078085 6.32955876 84.62002861 9.18111229 96.25 16.5 C97.29341553 17.1345813 97.29341553 17.1345813 98.35791016 17.78198242 C106.28846003 22.67269383 113.93844121 27.99119064 121.57958984 33.31787109 C124.80261387 35.55779802 128.04281465 37.77206569 131.28466797 39.98461914 C133.65966897 41.60600013 136.03109756 43.23250938 138.40234375 44.859375 C141.42428656 46.92974089 144.45826129 48.98030457 147.50390625 51.015625 C166.82328605 63.97454443 166.82328605 63.97454443 171 76 C171.91775474 80.86282546 172.58023199 85.25930404 171 90 C176.2532035 88.53599247 180.50498501 86.84145853 185.0625 83.83203125 C191.01103108 79.97197834 197.07695879 76.34660035 203.1875 72.75 C205.55381927 71.3549015 207.91953916 69.95878876 210.28515625 68.5625 C210.90009949 68.1997699 211.51504272 67.83703979 212.14862061 67.46331787 C216.96373553 64.62009391 221.76271643 61.75052529 226.55859375 58.875 C228.71149479 57.58690196 230.86467746 56.29927616 233.01797485 55.01184082 C234.4083255 54.17919713 235.79765217 53.34484089 237.18588257 52.50866699 C261.98738839 37.57447542 261.98738839 37.57447542 278.1015625 40.578125 C287.18062089 43.15873591 293.94034762 48.03351742 298.91796875 56.11328125 C302.12923976 62.36038567 304.14451947 67.40073115 304.125 74.4375 C304.12757813 75.36433594 304.13015625 76.29117188 304.1328125 77.24609375 C304.00344052 79.92865981 303.59782834 82.38568718 303 85 C303.50789063 85.35191406 304.01578125 85.70382812 304.5390625 86.06640625 C312.61001555 91.85512351 318.74320041 98.03458161 321 108 C322.23285764 118.56659531 321.62914357 128.18521304 315.52734375 137.16796875 C303.98990411 151.70568821 284.35802337 153.96394011 267.28125 157.34375 C265.24089221 157.75353675 263.20067302 158.16401411 261.1605835 158.57513428 C255.72926375 159.66760484 250.29611988 160.75070339 244.86238098 161.83106995 C239.23797058 162.95002023 233.61463669 164.07435578 227.99121094 165.19824219 C225.73993336 165.64815314 223.48865163 166.09804331 221.23736572 166.5479126 C219.57212231 166.88067577 219.57212231 166.88067577 217.87323761 167.22016144 C214.52030741 167.88968999 211.167123 168.55793367 207.81390381 169.22601318 C195.88584737 171.60494257 183.96838369 174.02580673 172.06671143 176.53341675 C167.34944318 177.52523646 162.62910433 178.50240379 157.90942383 179.48266602 C155.51370996 179.98501632 153.11957707 180.49498111 150.72729492 181.01342773 C123.87132337 186.82748762 99.11439911 187.95625905 75 173 C72.27220659 171.08081382 69.58960895 169.10779924 66.90917969 167.12304688 C62.12768079 163.63362808 57.18780329 160.38764161 52.25 157.125 C40.03834996 149.04990213 40.03834996 149.04990213 35.56640625 145.91796875 C21.04588368 135.78950132 5.85211726 129.97529293 -12 133 C-15.27625618 133.92378456 -18.44719937 134.97306361 -21.63671875 136.16015625 C-24 137 -24 137 -26 137 C-25.69964844 137.68964844 -25.39929688 138.37929688 -25.08984375 139.08984375 C-22.17508785 146.29274901 -21.05022985 151.53623731 -23.69140625 158.9375 C-28.25496337 168.43297312 -40.51339856 171.46833566 -49.63543701 175.12658691 C-52.19799527 176.15427399 -54.75685979 177.19071532 -57.31494141 178.22949219 C-60.04980925 179.34004538 -62.78485793 180.4501215 -65.52096558 181.55761719 C-74.87795432 185.34643482 -84.20461098 189.2073595 -93.53036499 193.07226562 C-99.30066741 195.46128337 -105.07554319 197.83923304 -110.84944153 200.21954346 C-117.26462221 202.86608974 -123.67344494 205.52756034 -130.07952881 208.19604492 C-134.56686805 210.06258309 -139.0581877 211.91940548 -143.550354 213.77429199 C-145.70567906 214.6667152 -147.85932368 215.56320898 -150.01116943 216.46398926 C-153.00962388 217.71853287 -156.01375108 218.95844372 -159.01953125 220.1953125 C-160.33841591 220.75326004 -160.33841591 220.75326004 -161.6839447 221.32247925 C-168.39825515 224.05888084 -174.61979486 225.95772479 -181.75 223.9375 C-186.01805801 221.3930808 -188.74740764 218.50518472 -191 214 C-191.10519908 211.81372636 -191.14395722 209.62417486 -191.15390015 207.43539429 C-191.1582824 206.75329317 -191.16266465 206.07119205 -191.1671797 205.3684212 C-191.18058618 203.07162051 -191.18675075 200.7748582 -191.19287109 198.47802734 C-191.20077078 196.83555934 -191.20903965 195.19309308 -191.21765137 193.55062866 C-191.24389294 188.14574852 -191.25918386 182.74086055 -191.2734375 177.3359375 C-191.27879682 175.4756838 -191.28417433 173.61543014 -191.28956985 171.75517654 C-191.31120415 164.01572275 -191.32993989 156.27627106 -191.34119225 148.53679466 C-191.3574236 137.44531437 -191.39057528 126.35418486 -191.44759309 115.26283681 C-191.4863127 107.46485909 -191.50582749 99.66697509 -191.51111281 91.86890376 C-191.51476429 87.21165147 -191.52676331 82.55477314 -191.55921555 77.89762497 C-191.58933078 73.51281635 -191.59559582 69.12860722 -191.58383179 64.74371719 C-191.58361132 63.13772088 -191.59189413 61.53169649 -191.60948563 59.92579651 C-191.7608547 45.30703416 -191.7608547 45.30703416 -187.39858246 39.40062428 C-184.91233932 36.91075143 -182.19730895 35.40718375 -179 34 C-178.39702087 33.72135101 -177.79404175 33.44270203 -177.17279053 33.15560913 C-175.22973873 32.28169596 -173.27194563 31.45461411 -171.3046875 30.63671875 C-170.57085846 30.3276207 -169.83702942 30.01852264 -169.08096313 29.70005798 C-166.68097051 28.6910376 -164.27815134 27.68897164 -161.875 26.6875 C-160.19591549 25.98432697 -158.51687978 25.28103741 -156.83789062 24.57763672 C-144.75345043 19.52464294 -132.63601829 14.55269576 -120.5 9.625 C-119.70736755 9.30276459 -118.91473511 8.98052917 -118.0980835 8.64852905 C-115.84759545 7.73465521 -113.59594084 6.82373069 -111.34375 5.9140625 C-110.68597565 5.64706039 -110.02820129 5.38005829 -109.35049438 5.10496521 C-101.68662909 2.02097913 -96.17450621 0.16273313 -88 2 C-81.36302103 5.4413965 -78.0943503 10.34714686 -75 17 C-70.98480224 16.41654791 -67.3452007 15.54496041 -63.52734375 14.1796875 C-62.47635498 13.81230469 -61.42536621 13.44492187 -60.3425293 13.06640625 C-58.65703979 12.47666016 -58.65703979 12.47666016 -56.9375 11.875 C-12.96986922 -3.18128868 -12.96986922 -3.18128868 0 0 Z M-103.3046875 19.875 C-104.4140567 20.34925919 -104.4140567 20.34925919 -105.5458374 20.83309937 C-107.15139378 21.52044893 -108.75512793 22.21206689 -110.35723877 22.90740967 C-114.6310371 24.76203777 -118.91775607 26.58636863 -123.203125 28.4140625 C-124.52946457 28.9811644 -124.52946457 28.9811644 -125.88259888 29.5597229 C-136.2142101 33.96634726 -146.62988844 38.16239651 -157.05169678 42.35009766 C-158.59809775 42.97151458 -160.14429006 43.59345108 -161.69024658 44.2159729 C-163.0848869 44.77733818 -164.48014789 45.3371651 -165.87615967 45.89511108 C-170.56728696 47.68771384 -170.56728696 47.68771384 -175 50 C-176.10425028 53.31275085 -176.12307551 55.75560027 -176.12025452 59.24516296 C-176.12162918 60.55348083 -176.12300385 61.86179871 -176.12442017 63.20976257 C-176.12088099 64.66287254 -176.11724618 66.11598228 -176.11352539 67.5690918 C-176.11324337 69.09660846 -176.11340154 70.62412526 -176.1139679 72.15164185 C-176.11425529 76.30217011 -176.10836787 80.45266958 -176.10139394 84.60319114 C-176.09515081 88.93938282 -176.09455584 93.27557514 -176.09336853 97.61177063 C-176.09025805 105.82463992 -176.08204847 114.03749592 -176.07201904 122.25035936 C-176.06084913 131.59970509 -176.05534523 140.94905145 -176.05032361 150.29840219 C-176.03986563 169.53227566 -176.02227165 188.76613676 -176 208 C-170.9791564 207.2498733 -166.64420538 205.79946309 -161.9921875 203.81640625 C-161.21085449 203.48965912 -160.42952148 203.16291199 -159.62451172 202.82626343 C-157.92964854 202.11674286 -156.23598383 201.40435412 -154.543396 200.68942261 C-150.88460676 199.14423504 -147.21991755 197.61328216 -143.55545044 196.08161926 C-141.62765996 195.27580051 -139.70015372 194.46930148 -137.7729187 193.66215515 C-127.49766136 189.36163425 -117.1881785 185.14607081 -106.875 180.9375 C-105.04708011 180.19085075 -103.21919922 179.44410602 -101.39135742 178.69726562 C-98.6596507 177.58111809 -95.92792963 176.46500604 -93.1960907 175.34918213 C-84.04753749 171.61215659 -74.90247026 167.86664711 -65.75909424 164.11697388 C-64.06497487 163.42230572 -62.37076325 162.72786246 -60.67645264 162.03366089 C-58.34006796 161.07636978 -56.00397825 160.11836244 -53.66796875 159.16015625 C-52.65226555 158.744207 -52.65226555 158.744207 -51.61604309 158.31985474 C-49.74232858 157.55069853 -47.87111504 156.77545846 -46 156 C-45.34150055 155.7501535 -44.6830011 155.50030701 -44.00454712 155.2428894 C-42.30251198 154.5759118 -40.64593874 153.79540456 -39 153 C-37.64488173 148.93464519 -39.13392664 146.5470782 -40.734375 142.79296875 C-41.03897644 142.05734207 -41.34357788 141.32171539 -41.65740967 140.563797 C-42.67947332 138.10126696 -43.71484525 135.64455254 -44.75 133.1875 C-45.47686876 131.44245573 -46.20276054 129.69700423 -46.92773438 127.95117188 C-48.47528849 124.2277476 -50.02785367 120.50646886 -51.58398438 116.78662109 C-55.18689955 108.16738698 -58.74390396 99.5291962 -62.30599976 90.89303589 C-63.50115919 87.99719132 -64.69815447 85.10211246 -65.89575195 82.20727539 C-69.82357726 72.71113619 -73.73776897 63.20974539 -77.62109375 53.6953125 C-77.98888947 52.79504333 -78.35668518 51.89477417 -78.73562622 50.96722412 C-80.46943326 46.72315275 -82.20041825 42.47797995 -83.92578125 38.23046875 C-84.54283087 36.71869371 -85.16001091 35.2069719 -85.77734375 33.6953125 C-86.04630966 33.02968292 -86.31527557 32.36405334 -86.59239197 31.67825317 C-87.98572561 28.27594383 -89.45420155 24.91101079 -91.01391602 21.58154297 C-91.32128189 20.9200827 -91.62864777 20.25862244 -91.94532776 19.57711792 C-94.97069346 15.05309778 -99.42765301 18.16751022 -103.3046875 19.875 Z M228.84375 76.26611328 C226.40000515 77.7561095 223.95160771 79.23784124 221.5 80.71484375 C217.20809504 83.29116301 217.20809504 83.29116301 213 86 C213 86.33 213 86.66 213 87 C229.109008 86.30340053 245.17301459 85.15568031 261.25 83.9375 C263.7603997 83.74912267 266.27081628 83.56097021 268.78125 83.37304688 C274.85436324 82.91794982 280.92726416 82.46010412 287 82 C288.70948887 75.6067896 288.45471846 70.66699549 285.26953125 64.859375 C282.28256492 60.48461816 278.15544137 57.35023464 273 56 C258.35760368 53.60397151 240.57668569 69.10894844 228.84375 76.26611328 Z " fill="#FFFFFF" transform="translate(191,266)"/>
<path d="M0 0 C1.19753906 -0.01160156 2.39507812 -0.02320312 3.62890625 -0.03515625 C15.2077296 0.0033116 15.2077296 0.0033116 20.5 3.375 C25.17276611 8.33790519 25.14841941 13.27654575 25.25 19.75 C25.27964844 20.67683594 25.30929687 21.60367188 25.33984375 22.55859375 C25.41011861 24.83081435 25.46302048 27.10203459 25.5 29.375 C28.80147879 30.2141696 28.80147879 30.2141696 32.5 30.375 C34.85991002 28.867093 34.85991002 28.867093 36.625 26.5625 C39.38683938 23.32507417 41.38590278 21.61379314 45.5 20.375 C50.63095451 20.27818954 53.18333163 21.66089369 56.9375 24.9375 C58.7009375 26.6390625 58.7009375 26.6390625 60.5 28.375 C64.13 27.055 67.76 25.735 71.5 24.375 C71.5825 22.68375 71.665 20.9925 71.75 19.25 C72.20405318 14.28099553 73.0832378 11.18224931 76.5 7.375 C81.07557676 4.55032205 85.71774514 5.04470942 90.9375 5.0625 C92.34999023 5.03833008 92.34999023 5.03833008 93.79101562 5.01367188 C102.55476486 5.00748715 102.55476486 5.00748715 106.5 8.375 C109.6476355 11.57127446 109.94801602 14.21849483 110.1875 18.625 C110.25324219 19.70265625 110.31898438 20.7803125 110.38671875 21.890625 C110.44279297 23.12039062 110.44279297 23.12039062 110.5 24.375 C112.0747294 25.10226052 113.66024279 25.80620422 115.25 26.5 C116.13171875 26.89445312 117.0134375 27.28890625 117.921875 27.6953125 C120.44881267 28.61234046 120.44881267 28.61234046 122.68359375 27.65234375 C124.72262214 26.31883722 124.72262214 26.31883722 126.8125 23.8125 C130.18013437 20.75813394 131.98318318 20.375 136.5 20.375 C141.8673877 22.22646823 145.39005986 24.67983034 149.3125 28.8125 C149.78880859 29.29009766 150.26511719 29.76769531 150.75585938 30.25976562 C154.62962297 34.23159918 156.34086732 36.73062897 156.875 42.25 C156.73572896 48.00296522 153.45265454 51.51295072 149.5 55.375 C149.7165625 55.98988281 149.933125 56.60476562 150.15625 57.23828125 C150.57390625 58.45064453 150.57390625 58.45064453 151 59.6875 C151.41765625 60.88826172 151.41765625 60.88826172 151.84375 62.11328125 C152.5 64.375 152.5 64.375 152.5 67.375 C153.15226562 67.34019531 153.80453125 67.30539063 154.4765625 67.26953125 C159.93480317 67.1004707 163.83460121 67.188874 168.5 70.375 C172.84281819 75.07620294 171.97706985 80.23672989 171.9375 86.3125 C171.95748047 87.39724609 171.97746094 88.48199219 171.99804688 89.59960938 C171.99316178 97.54766289 171.99316178 97.54766289 169.59765625 101.56640625 C165.96296035 104.70023158 163.61452664 104.48396595 158.875 104.4375 C157.68648438 104.42847656 156.49796875 104.41945313 155.2734375 104.41015625 C153.90058594 104.39275391 153.90058594 104.39275391 152.5 104.375 C152.3659375 105.29539062 152.231875 106.21578125 152.09375 107.1640625 C151.5 110.375 151.5 110.375 150 113.75 C149.07980442 117.28050136 149.07980442 117.28050136 150.9296875 119.28125 C151.89261719 120.25578125 151.89261719 120.25578125 152.875 121.25 C155.64926975 124.09568659 157.08412287 125.84725785 157.3125 129.875 C156.85192502 135.23609282 154.06039697 138.54192493 150.5 142.375 C149.90058594 143.02984375 149.30117188 143.6846875 148.68359375 144.359375 C144.64277725 148.58346827 141.31361743 151.59942061 135.25 151.9375 C132.1486462 151.91722971 130.88224725 151.68721722 128.453125 149.703125 C127.80859375 149.03796875 127.1640625 148.3728125 126.5 147.6875 C124.64317414 145.70240894 124.64317414 145.70240894 122.5 144.375 C119.11488913 144.61245476 116.49933834 145.86054119 113.5 147.375 C112.51 147.705 111.52 148.035 110.5 148.375 C110.47421875 149.18324219 110.4484375 149.99148437 110.421875 150.82421875 C109.95840472 159.55642014 109.95840472 159.55642014 107.75 163.5 C103.26943937 167.23380053 98.90493351 167.67939625 93.1875 168 C91.30611328 168.11214844 91.30611328 168.11214844 89.38671875 168.2265625 C87.95779297 168.30003906 87.95779297 168.30003906 86.5 168.375 C85.5191889 170.58687023 85.5191889 170.58687023 85.5 173.375 C87.22427127 175.4964856 88.7928882 177.14642976 90.8125 178.9375 C98.06073739 185.56576237 98.06073739 185.56576237 98.8359375 190.5234375 C98.84882813 191.25820312 98.86171875 191.99296875 98.875 192.75 C98.90335938 193.47960937 98.93171875 194.20921875 98.9609375 194.9609375 C97.60887104 202.04209913 90.94199644 207.2663383 86.0625 212.125 C85.31162109 212.89199219 84.56074219 213.65898437 83.78710938 214.44921875 C83.05427734 215.18269531 82.32144531 215.91617188 81.56640625 216.671875 C80.90584229 217.33541992 80.24527832 217.99896484 79.56469727 218.68261719 C76.24622516 221.40268915 73.29583894 222.28818121 69.0625 222.75 C60.5174311 221.85051906 55.16419208 214.24068508 49.5 208.375 C48.95585449 208.61210693 48.41170898 208.84921387 47.85107422 209.09350586 C45.36199641 210.17344702 42.86859503 211.24303292 40.375 212.3125 C39.5190625 212.68568359 38.663125 213.05886719 37.78125 213.44335938 C33.35321782 215.3337885 29.33913723 216.87522025 24.5 217.375 C24.52094727 217.94943848 24.54189453 218.52387695 24.56347656 219.11572266 C24.64713764 221.74363374 24.6988146 224.3712639 24.75 227 C24.78351563 227.90363281 24.81703125 228.80726563 24.8515625 229.73828125 C24.93514722 235.46383446 24.50893414 238.94335512 20.5 243.375 C14.88761579 247.53280553 8.87614477 246.86162641 2.20776367 246.82104492 C0.07177252 246.81253693 -2.06153838 246.84131719 -4.19726562 246.87304688 C-5.56770754 246.87465936 -6.93815414 246.87408045 -8.30859375 246.87109375 C-9.54407959 246.87294678 -10.77956543 246.8747998 -12.05249023 246.87670898 C-16.97850898 246.15983564 -20.09705834 243.96029466 -23.36328125 240.26953125 C-25.08338816 235.8894652 -24.81583345 231.71870096 -24.6875 227.0625 C-24.67396484 226.13115234 -24.66042969 225.19980469 -24.64648438 224.24023438 C-24.61126882 221.95122354 -24.56202099 219.66341542 -24.5 217.375 C-25.55199585 217.12157837 -25.55199585 217.12157837 -26.62524414 216.86303711 C-34.67355793 214.88927835 -41.96831295 211.77250555 -49.5 208.375 C-50.31984375 209.21804687 -51.1396875 210.06109375 -51.984375 210.9296875 C-53.07264734 212.03672316 -54.16120398 213.14347939 -55.25 214.25 C-55.78882813 214.80558594 -56.32765625 215.36117187 -56.8828125 215.93359375 C-60.69776341 219.79506845 -63.29688372 222.17100775 -68.875 222.6875 C-77.35119595 221.95679345 -82.09208329 216.20948761 -87.75 210.4375 C-88.5646875 209.62603516 -89.379375 208.81457031 -90.21875 207.97851562 C-98.76349183 199.35596572 -98.76349183 199.35596572 -98.875 193 C-98.65538488 185.90296399 -94.61364844 182.47008895 -89.6875 177.8125 C-88.87667969 177.08933594 -88.06585938 176.36617187 -87.23046875 175.62109375 C-85.23414527 173.5237127 -85.23414527 173.5237127 -85.5859375 170.92578125 C-86.88371299 167.30421118 -88.53964506 163.92783563 -90.24609375 160.484375 C-91.84005436 156.53174995 -92.6795794 152.54686471 -93.5 148.375 C-94.80195313 148.40980469 -96.10390625 148.44460937 -97.4453125 148.48046875 C-99.17186204 148.50861901 -100.89842561 148.53591784 -102.625 148.5625 C-103.4809375 148.58763672 -104.336875 148.61277344 -105.21875 148.63867188 C-110.38741754 148.69831035 -114.13729319 148.46255363 -118.5 145.375 C-122.14021618 140.83953248 -123.01074122 137.77761548 -123.03125 132 C-123.0350769 131.31244629 -123.03890381 130.62489258 -123.04284668 129.91650391 C-123.0455539 128.47101364 -123.03827628 127.02547339 -123.02148438 125.58007812 C-123.0000525 123.38038868 -123.02132124 121.18396412 -123.046875 118.984375 C-123.04423151 117.57290953 -123.03910607 116.16144608 -123.03125 114.75 C-123.02673828 113.47898437 -123.02222656 112.20796875 -123.01757812 110.8984375 C-122.4086324 106.75301076 -121.13158812 104.60219553 -118.5 101.375 C-110.93857915 96.92710538 -101.99488549 98.11436147 -93.5 98.375 C-93.190625 96.5496875 -93.190625 96.5496875 -92.875 94.6875 C-91.68374331 89.1283021 -89.21596925 84.33346899 -86.64453125 79.29296875 C-85.38115093 76.58159133 -85.38115093 76.58159133 -85.48046875 74.33984375 C-87.07103526 71.27449909 -89.51579568 69.09028316 -92 66.75 C-98.64659488 60.38802002 -98.64659488 60.38802002 -98.8125 54.625 C-98.84988281 53.78453125 -98.88726562 52.9440625 -98.92578125 52.078125 C-97.82670024 45.10047307 -91.5087261 39.98602957 -86.75 35.1875 C-86.07195312 34.47658203 -85.39390625 33.76566406 -84.6953125 33.03320312 C-79.92081155 28.20877869 -75.39246584 24.52619135 -68.2800293 24.30639648 C-60.11637255 24.83362242 -54.60077408 32.73048859 -49.5 38.375 C-45.40504975 37.05876599 -41.45494735 35.5640921 -37.5 33.875 C-33.54505265 32.1859079 -29.59495025 30.69123401 -25.5 29.375 C-25.4906543 28.80056152 -25.48130859 28.22612305 -25.47167969 27.63427734 C-25.41764969 25.00534696 -25.33407106 22.37813433 -25.25 19.75 C-25.23582031 18.84636719 -25.22164063 17.94273438 -25.20703125 17.01171875 C-25.00222175 11.39993841 -24.51217791 7.63630007 -20.5 3.375 C-14.16565653 -0.66058979 -7.31237257 -0.07084107 0 0 Z M-8.5 16.375 C-8.51417969 17.90511719 -8.52835937 19.43523438 -8.54296875 21.01171875 C-8.58987473 23.02867579 -8.63812208 25.04560196 -8.6875 27.0625 C-8.69620117 28.57360352 -8.69620117 28.57360352 -8.70507812 30.11523438 C-8.84171296 34.71527371 -8.94815769 37.55196661 -11.55078125 41.43359375 C-15.0592544 43.74314495 -18.46581075 44.79854027 -22.5 45.75 C-30.19794575 47.76962584 -39.70998882 50.58498882 -45.5 56.375 C-49.4871158 57.13620123 -53.05996882 57.29914284 -56.55126953 55.05859375 C-58.5096325 53.24947311 -60.29342443 51.36930064 -62.0625 49.375 C-62.68962891 48.70726562 -63.31675781 48.03953125 -63.96289062 47.3515625 C-65.49775178 45.71125287 -67.00765953 44.0539229 -68.5 42.375 C-72.13303084 44.07086126 -74.44549046 46.11300488 -77.25 49 C-78.04921875 49.81726563 -78.8484375 50.63453125 -79.671875 51.4765625 C-80.27515625 52.10304687 -80.8784375 52.72953125 -81.5 53.375 C-77.85844252 57.72710528 -74.1433682 61.80389352 -70.015625 65.69921875 C-67.40832829 68.58202877 -66.5 70.59751781 -66.5 74.5 C-67.08581387 77.79869003 -68.45899007 80.12635296 -70.25 82.9375 C-74.64189174 89.8465671 -76.91936507 97.44914202 -79.40625 105.19921875 C-81.34545724 111.22045724 -81.34545724 111.22045724 -83.5 113.375 C-85.83837891 113.69384766 -85.83837891 113.69384766 -88.7265625 113.7890625 C-89.7578125 113.82773438 -90.7890625 113.86640625 -91.8515625 113.90625 C-92.93179688 113.9371875 -94.01203125 113.968125 -95.125 114 C-96.21296875 114.03867188 -97.3009375 114.07734375 -98.421875 114.1171875 C-101.11429745 114.21165846 -103.80712584 114.29442581 -106.5 114.375 C-106.5 120.315 -106.5 126.255 -106.5 132.375 C-104.95828125 132.40078125 -103.4165625 132.4265625 -101.828125 132.453125 C-99.80205497 132.50940472 -97.7760144 132.56675209 -95.75 132.625 C-94.22632813 132.64626953 -94.22632813 132.64626953 -92.671875 132.66796875 C-85.24660131 132.91222117 -85.24660131 132.91222117 -81.94140625 134.9609375 C-80.07663159 138.08405603 -79.10588082 141.26306837 -78.1875 144.75 C-75.69904356 153.4540899 -72.18487357 161.70596374 -67.23046875 169.328125 C-66.00436296 172.7638439 -66.49763247 174.88323619 -67.5 178.375 C-69.58141498 181.15625726 -72.01565206 183.45983988 -74.5625 185.8125 C-75.22572266 186.44865234 -75.88894531 187.08480469 -76.57226562 187.74023438 C-78.20205813 189.29967612 -79.84413568 190.84334939 -81.5 192.375 C-80.56122074 193.4815941 -79.62079084 194.58678799 -78.6796875 195.69140625 C-77.89440674 196.61481812 -77.89440674 196.61481812 -77.09326172 197.55688477 C-74.9984209 199.94736585 -72.78027529 202.16179163 -70.5 204.375 C-66.45864413 202.77569566 -63.82092848 199.88839591 -60.875 196.8125 C-54.89216353 190.6171154 -54.89216353 190.6171154 -50.625 189.875 C-46.76286991 189.9223881 -44.41408248 191.46828232 -41.1875 193.5 C-34.63314368 197.59025021 -27.85119653 199.82767237 -20.50390625 202.11328125 C-11.87420616 204.81369077 -11.87420616 204.81369077 -9.5 208.375 C-9.18115234 210.73510742 -9.18115234 210.73510742 -9.0859375 213.48046875 C-9.04726563 214.46337891 -9.00859375 215.44628906 -8.96875 216.45898438 C-8.9378125 217.48314453 -8.906875 218.50730469 -8.875 219.5625 C-8.83632813 220.59826172 -8.79765625 221.63402344 -8.7578125 222.70117188 C-8.66352131 225.25882027 -8.58067082 227.81688578 -8.5 230.375 C-2.89 230.375 2.72 230.375 8.5 230.375 C8.53738281 228.83328125 8.57476562 227.2915625 8.61328125 225.703125 C8.6789408 223.677059 8.74538814 221.65101842 8.8125 219.625 C8.83505859 218.60921875 8.85761719 217.5934375 8.88085938 216.546875 C8.9340332 215.07734375 8.9340332 215.07734375 8.98828125 213.578125 C9.01446533 212.67739258 9.04064941 211.77666016 9.06762695 210.84863281 C9.58318894 207.89907095 10.43183302 206.5218375 12.5 204.375 C15.13189345 203.44901751 17.61602727 202.71832643 20.3125 202.0625 C29.7730458 199.54056733 38.31834613 195.82943591 46.5 190.375 C50.05383324 189.74785296 52.41521262 189.65465003 55.48828125 191.6953125 C57.58521957 193.51130181 59.55004066 195.40218958 61.5 197.375 C62.180625 198.04273438 62.86125 198.71046875 63.5625 199.3984375 C65.22560462 201.04142392 66.87005533 202.69921314 68.5 204.375 C72.18069887 202.83856148 74.48775204 200.59349055 77.25 197.75 C78.04921875 196.93273437 78.8484375 196.11546875 79.671875 195.2734375 C80.27515625 194.64695313 80.8784375 194.02046875 81.5 193.375 C78.22640757 189.44668908 74.94671277 185.84295844 71.1875 182.375 C68.69438071 179.86266592 67.50467825 178.38627034 66.125 175.0625 C66.52497644 171.12939837 67.42344598 169.57150674 69.4375 166.25 C73.21573137 159.97621628 73.11388272 154.52559688 72.5 147.375 C70.9252706 146.64773948 69.33975721 145.94379578 67.75 145.25 C66.86828125 144.85554687 65.9865625 144.46109375 65.078125 144.0546875 C62.55832937 143.1422966 62.55832937 143.1422966 60.34765625 144.0703125 C54.74566962 148.02604936 51.01303542 154.35819208 47.2109375 159.9453125 C38.90781941 171.73649846 27.03167634 178.27723599 13.24609375 181.98046875 C-4.78504431 184.5710021 -21.41122457 181.9206652 -36.5 171.375 C-38.31271539 169.78837821 -39.87769004 168.15954096 -41.5 166.375 C-42.16 166.375 -42.82 166.375 -43.5 166.375 C-43.76167969 165.8078125 -44.02335937 165.240625 -44.29296875 164.65625 C-45.5978121 162.1901383 -47.13663494 160.10453223 -48.8125 157.875 C-57.75168918 145.19252535 -61.34196015 130.26034873 -58.96484375 114.921875 C-55.64340408 98.15132718 -48.56893539 84.67408254 -34.5 74.375 C-20.26080079 65.78468499 -4.58864262 61.78701839 11.9375 65.0546875 C13.90738424 65.58233506 15.87170777 66.13145546 17.828125 66.70703125 C21.8045594 67.70113985 25.42183736 67.57890813 29.5 67.375 C31.975 61.435 31.975 61.435 34.5 55.375 C28.49971056 48.45941217 24.28510408 45.32699134 15.3203125 43.32421875 C11.98276442 42.20091656 11.28087312 41.35146019 9.5 38.375 C9.06762695 35.90136719 9.06762695 35.90136719 8.98828125 33.171875 C8.95283203 32.1921875 8.91738281 31.2125 8.88085938 30.203125 C8.85830078 29.18734375 8.83574219 28.1715625 8.8125 27.125 C8.77833984 26.09375 8.74417969 25.0625 8.70898438 24 C8.62662785 21.45871301 8.56163407 18.91687399 8.5 16.375 C2.89 16.375 -2.72 16.375 -8.5 16.375 Z M88.5 21.375 C88.46261719 22.27863281 88.42523438 23.18226562 88.38671875 24.11328125 C88.32097656 25.29277344 88.25523437 26.47226562 88.1875 27.6875 C88.10048828 29.44513672 88.10048828 29.44513672 88.01171875 31.23828125 C87.5 34.375 87.5 34.375 86.30859375 36.17578125 C83.92906383 37.75356891 81.61463444 38.45005506 78.875 39.25 C74.81650829 40.51155526 71.36552153 41.89521843 67.75 44.125 C63.26403858 46.71616905 60.65757709 47.37324073 55.5 46.375 C52.81467518 44.31250718 50.6373025 41.99319556 48.5 39.375 C46.52 40.365 46.52 40.365 44.5 41.375 C45.7095017 44.23382221 46.98876746 45.91031674 49.125 48.25 C51.88407792 51.88036569 51.94888285 52.95186164 51.5 57.375 C50.328125 60.1640625 50.328125 60.1640625 48.75 63 C45.97136636 68.23615161 44.03816527 73.39725693 42.359375 79.07421875 C41.5 81.375 41.5 81.375 39.5 82.375 C37.295636 82.60450319 35.08607827 82.78575933 32.875 82.9375 C31.68648437 83.02128906 30.49796875 83.10507813 29.2734375 83.19140625 C28.35820312 83.25199219 27.44296875 83.31257813 26.5 83.375 C26.5 85.355 26.5 87.335 26.5 89.375 C27.40363281 89.41238281 28.30726563 89.44976562 29.23828125 89.48828125 C30.41777344 89.55402344 31.59726562 89.61976562 32.8125 89.6875 C33.98425781 89.74550781 35.15601563 89.80351563 36.36328125 89.86328125 C39.5 90.375 39.5 90.375 41.30078125 91.56640625 C42.87856891 93.94593617 43.57505506 96.26036556 44.375 99 C45.64078265 103.06718534 47.03442021 106.55119531 49.25 110.1875 C51.5333568 114.15483245 52.51270078 116.73345475 51.5 121.375 C49.41039727 124.30251273 47.06329093 126.85748212 44.5 129.375 C45.16 130.695 45.82 132.015 46.5 133.375 C49.38822145 132.19831719 50.67353302 131.17254481 52.75 128.75 C55.66924572 126.22883324 57.28395517 125.58031839 61.13671875 125.8125 C65.23504604 126.78796964 68.76678718 128.85869459 72.453125 130.8515625 C76.06613594 132.65806797 79.6224168 133.70508943 83.5390625 134.63671875 C85.5 135.375 85.5 135.375 87.5 138.375 C87.9140625 141.51171875 87.9140625 141.51171875 88.125 145.0625 C88.19976562 146.24199219 88.27453125 147.42148438 88.3515625 148.63671875 C88.40054688 149.54035156 88.44953125 150.44398438 88.5 151.375 C90.15 151.375 91.8 151.375 93.5 151.375 C93.51417969 150.56675781 93.52835937 149.75851563 93.54296875 148.92578125 C93.9289542 140.27762078 93.9289542 140.27762078 96.4375 136.3125 C99.87339099 134.13877305 102.97104361 133.20327812 106.8828125 132.19921875 C109.60715574 131.34125394 111.70111054 130.1846082 114.125 128.6875 C117.64240538 126.66607371 120.40957529 125.50370847 124.50390625 125.734375 C128.6328012 127.0594998 131.55743093 130.30721523 134.5 133.375 C135.82 132.715 137.14 132.055 138.5 131.375 C137.34074387 128.52955313 136.2366545 127.13092369 133.9375 125 C131.03298533 121.87206112 130.68524992 120.59569413 130.5 116.375 C131.4755575 113.76681832 132.4683881 111.50472263 133.75 109.0625 C134.40879767 107.74149625 135.0637728 106.41857901 135.71484375 105.09375 C136.0279248 104.45824219 136.34100586 103.82273437 136.66357422 103.16796875 C137.74309145 100.8539073 138.55679399 98.49975079 139.3125 96.0625 C140.5 92.375 140.5 92.375 142.5 90.375 C145.5390625 89.9609375 145.5390625 89.9609375 149.125 89.75 C150.90777344 89.63785156 150.90777344 89.63785156 152.7265625 89.5234375 C153.64179688 89.47445312 154.55703125 89.42546875 155.5 89.375 C155.5 87.395 155.5 85.415 155.5 83.375 C154.59636719 83.34921875 153.69273437 83.3234375 152.76171875 83.296875 C151.58222656 83.24015625 150.40273438 83.1834375 149.1875 83.125 C148.01574219 83.07859375 146.84398437 83.0321875 145.63671875 82.984375 C142.5 82.375 142.5 82.375 140.69921875 80.6796875 C139.34554667 78.07816786 138.46312671 75.56106217 137.625 72.75 C136.31261682 68.56262953 134.79241361 64.84831852 132.6875 61 C131.19787291 58.09035457 130.50902421 56.49005866 130.25 53.1875 C132.09696592 49.03182667 135.12506501 46.35340216 138.5 43.375 C137.51 41.395 137.51 41.395 136.5 39.375 C133.64120396 40.58449063 132.00477917 41.83720611 129.6875 44 C126.5 46.375 126.5 46.375 123.375 47.0625 C118.53558575 46.20389425 114.88422784 44.20596673 110.578125 41.890625 C107.68705384 40.46710265 105.05143696 39.59553678 101.9375 38.8125 C98.94045177 37.96237574 97.71055127 37.57917092 95.4375 35.375 C94.00360527 30.78653687 93.74296149 26.15882802 93.5 21.375 C91.85 21.375 90.2 21.375 88.5 21.375 Z M-33.8125 94.625 C-40.86526682 103.0028321 -45.10097312 114.11862627 -44.75 125.15234375 C-43.32471255 137.82403997 -38.70249442 148.23203916 -29.46484375 157.0390625 C-17.98311283 166.08527474 -5.82690837 168.60608765 8.5 167.375 C20.73452057 164.79853658 30.01991324 157.07140876 37.5 147.375 C37.11328125 146.92769531 36.7265625 146.48039062 36.328125 146.01953125 C26.21928307 134.28426673 26.21928307 134.28426673 26.5 129.1875 C27.16389929 123.40877096 30.20012828 121.04943583 34.5 117.375 C32.85 113.085 31.2 108.795 29.5 104.375 C27.416875 104.230625 25.33375 104.08625 23.1875 103.9375 C19.70410111 103.69607631 16.81544299 103.48014766 13.5 102.375 C11.02732438 98.04361243 11.07055309 93.42280914 10.875 88.5625 C10.81699219 87.38010742 10.81699219 87.38010742 10.7578125 86.17382812 C10.66411156 84.2412462 10.58099221 82.30815624 10.5 80.375 C-6.09194833 75.48097208 -22.39448658 82.71703451 -33.8125 94.625 Z " fill="#FFFFFF" transform="translate(308.5,20.625)"/>
<path d="M0 0 C5.34439447 3.24924979 9.59211585 7.09834915 12.5390625 12.6796875 C13.14572591 16.18485385 12.94507879 17.796005 11.4765625 20.9921875 C8.58823156 23.50783058 6.31561112 23.61457459 2.5390625 23.6796875 C-1.64714531 21.88559844 -4.2762096 18.8644154 -7.4609375 15.6796875 C-13.73313259 11.3962372 -19.99024067 10.81882575 -27.4609375 11.6796875 C-34.28041818 13.8552872 -39.63741662 17.58272177 -43.4609375 23.6796875 C-46.60739616 30.17946542 -46.64209688 37.65825183 -44.62109375 44.5390625 C-41.37659908 51.74905065 -36.6154854 55.69272981 -29.5859375 59.0546875 C-21.73790296 60.62429441 -15.79602463 60.15010731 -8.71484375 56.23828125 C-5.28967314 53.86974906 -2.94438056 50.98341933 -0.4609375 47.6796875 C3.55968106 42.83432668 3.55968106 42.83432668 8.1015625 42.1171875 C11.5390625 42.6796875 11.5390625 42.6796875 13.9765625 44.1796875 C15.74186783 47.00417603 16.23017865 49.20083902 16.05078125 52.53515625 C15.054292 56.71128297 12.36488912 59.5593734 9.5390625 62.6796875 C8.74435547 63.61167969 8.74435547 63.61167969 7.93359375 64.5625 C1.36245615 71.77358211 -7.87701059 76.14407392 -17.58203125 76.93359375 C-29.63773156 77.34293297 -40.1240168 74.50392273 -49.4609375 66.6796875 C-57.10939564 59.45387143 -62.05674552 51.36542034 -62.69921875 40.73828125 C-63.00949987 27.84344496 -61.5118465 17.52307241 -52.4609375 7.6796875 C-38.09331347 -6.86678662 -17.9314083 -9.62034287 0 0 Z " fill="#FFFFFF" transform="translate(421.4609375,71.3203125)"/>
</svg>
