<?xml version="1.0" encoding="iso-8859-1"?>
<!-- Uploaded to: SVG Repo, www.svgrepo.com, Generator: SVG Repo Mixer Tools -->
<svg fill="white" height="800px" width="800px" version="1.1" id="Layer_1" xmlns="http://www.w3.org/2000/svg" xmlns:xlink="http://www.w3.org/1999/xlink" 
	 viewBox="0 0 512.005 512.005" xml:space="preserve">
<g>
	<g>
		<g>
			<path d="M240.926,240.916c-8.341,8.32-8.341,21.824,0,30.165c8.32,8.341,21.824,8.341,30.165,0
				c8.341-8.341,8.341-21.845,0-30.165C262.75,232.575,249.246,232.575,240.926,240.916z"/>
			<path d="M216.192,186.013c4.001,4.001,9.427,6.248,15.085,6.248h49.472c5.658,0,11.084-2.248,15.085-6.248l30.72-30.72
				c28.205-28.205,14.213-75.881-24.366-85.416c-30.312-7.464-62.058-7.464-92.353-0.004c-38.599,9.54-52.566,57.218-24.363,85.421
				L216.192,186.013z M220.054,111.297c23.576-5.805,48.32-5.805,71.914,0.004c6.635,1.64,8.896,9.342,4.416,13.822l-24.472,24.472
				h-31.799l-24.472-24.472C211.156,120.637,213.41,112.939,220.054,111.297z"/>
			<path d="M295.829,325.992c-4-3.998-9.424-6.243-15.08-6.243h-49.472c-5.655,0-11.079,2.246-15.08,6.243l-30.72,30.699
				c-28.208,28.208-14.242,75.886,24.34,85.422c30.307,7.487,62.064,7.487,92.368,0.001c38.581-9.536,52.574-57.212,24.369-85.417
				L295.829,325.992z M291.95,400.693c-23.581,5.825-48.315,5.825-71.898-0.001c-6.641-1.641-8.896-9.337-4.412-13.824
				l24.469-24.452h31.808l24.473,24.456C300.864,391.346,298.604,399.048,291.95,400.693z"/>
			<path d="M442.111,209.805c-9.505-38.567-57.194-52.554-85.397-24.351l-30.421,30.421c-4.001,4.001-6.248,9.427-6.248,15.085
				v50.069c0,5.658,2.248,11.084,6.248,15.085l30.421,30.421c28.203,28.203,75.892,14.216,85.399-24.359
				C449.596,271.885,449.596,240.129,442.111,209.805z M400.689,291.956c-1.634,6.631-9.327,8.888-13.804,4.41l-24.173-24.173
				v-32.396l24.173-24.173c4.478-4.478,12.17-2.221,13.801,4.398C406.515,243.637,406.515,268.371,400.689,291.956z"/>
			<path d="M437.018,74.968c-99.958-99.958-262.05-99.958-362.029-0.002c-99.981,99.981-99.981,262.075-0.002,362.054
				C174.966,537,337.062,537,437.02,437.019C536.997,337.042,536.997,174.948,437.018,74.968z M406.848,406.851
				c-83.297,83.317-218.375,83.317-301.691,0c-83.317-83.317-83.317-218.396,0-301.713c83.315-83.296,218.396-83.296,301.691,0
				C490.165,188.455,490.165,323.534,406.848,406.851z"/>
			<path d="M192.258,280.731v-49.472c0-5.658-2.248-11.084-6.248-15.085l-30.72-30.72c-28.203-28.203-75.892-14.216-85.398,24.359
				c-7.483,30.316-7.483,62.072,0.003,92.376c9.504,38.564,57.193,52.55,85.396,24.347l30.72-30.72
				C190.011,291.815,192.258,286.389,192.258,280.731z M149.592,271.894l-24.472,24.472c-4.478,4.478-12.17,2.221-13.802-4.398
				c-5.829-23.596-5.829-48.331-0.002-71.938c1.633-6.628,9.326-8.884,13.803-4.406l24.472,24.472V271.894z"/>
		</g>
	</g>
</g>
</svg>